<?xml version="1.0" encoding="utf-8"?>
<!-- Generator: Adobe Illustrator 17.1.0, SVG Export Plug-In . SVG Version: 6.00 Build 0)  -->
<!DOCTYPE svg PUBLIC "-//W3C//DTD SVG 1.1//EN" "http://www.w3.org/Graphics/SVG/1.1/DTD/svg11.dtd">
<svg version="1.1" id="Layer_1" xmlns="http://www.w3.org/2000/svg" xmlns:xlink="http://www.w3.org/1999/xlink" x="0px" y="0px"
	 viewBox="4.8 104.1 781.5 1015.8" enable-background="new 4.8 104.1 781.5 1015.8" xml:space="preserve">
<rect x="4.8" y="104.1" fill="#FFC0CB" width="6.9" height="1015.8"/>
<rect x="32.8" y="104.1" fill="#FFC0CB" width="6.9" height="1015.8"/>
<rect x="46.9" y="104.1" fill="#FFC0CB" width="6.9" height="1015.8"/>
<rect x="18.8" y="104.1" fill="#FFC0CB" width="6.9" height="1015.8"/>
<rect x="60.9" y="104.1" fill="#FFC0CB" width="6.9" height="1015.8"/>
<rect x="74.9" y="104.1" fill="#FFC0CB" width="6.9" height="1015.8"/>
<rect x="88.9" y="104.1" fill="#FFC0CB" width="6.9" height="1015.8"/>
<rect x="102.9" y="104.1" fill="#FFC0CB" width="6.9" height="1015.8"/>
<rect x="116.9" y="104.1" fill="#FFC0CB" width="6.9" height="1015.8"/>
<rect x="130.9" y="104.1" fill="#FFC0CB" width="6.9" height="1015.8"/>
<rect x="145" y="104.1" fill="#FFC0CB" width="6.9" height="1015.8"/>
<rect x="173" y="104.1" fill="#FFC0CB" width="6.9" height="1015.8"/>
<rect x="187" y="104.1" fill="#FFC0CB" width="6.9" height="1015.8"/>
<rect x="159" y="104.1" fill="#FFC0CB" width="6.9" height="1015.8"/>
<rect x="597.2" y="104.1" fill="#FFC0CB" width="6.9" height="1015.8"/>
<rect x="625.2" y="104.1" fill="#FFC0CB" width="6.9" height="1015.8"/>
<rect x="639.3" y="104.1" fill="#FFC0CB" width="6.9" height="1015.8"/>
<rect x="611.2" y="104.1" fill="#FFC0CB" width="6.9" height="1015.8"/>
<rect x="653.3" y="104.1" fill="#FFC0CB" width="6.9" height="1015.8"/>
<rect x="667.3" y="104.1" fill="#FFC0CB" width="6.9" height="1015.8"/>
<rect x="681.3" y="104.1" fill="#FFC0CB" width="6.9" height="1015.8"/>
<rect x="695.3" y="104.1" fill="#FFC0CB" width="6.9" height="1015.8"/>
<rect x="709.3" y="104.1" fill="#FFC0CB" width="6.9" height="1015.8"/>
<rect x="723.3" y="104.1" fill="#FFC0CB" width="6.9" height="1015.8"/>
<rect x="737.4" y="104.1" fill="#FFC0CB" width="6.9" height="1015.8"/>
<rect x="765.4" y="104.1" fill="#FFC0CB" width="6.9" height="1015.8"/>
<rect x="779.4" y="104.1" fill="#FFC0CB" width="6.9" height="1015.8"/>
<rect x="751.4" y="104.1" fill="#FFC0CB" width="6.9" height="1015.8"/>
<rect x="399.3" y="104.1" fill="#FFC0CB" width="6.9" height="1015.8"/>
<rect x="427.3" y="104.1" fill="#FFC0CB" width="6.9" height="1015.8"/>
<rect x="441.4" y="104.1" fill="#FFC0CB" width="6.9" height="1015.8"/>
<rect x="413.3" y="104.1" fill="#FFC0CB" width="6.9" height="1015.8"/>
<rect x="455.4" y="104.1" fill="#FFC0CB" width="6.9" height="1015.8"/>
<rect x="469.4" y="104.1" fill="#FFC0CB" width="6.9" height="1015.8"/>
<rect x="483.4" y="104.1" fill="#FFC0CB" width="6.9" height="1015.8"/>
<rect x="497.4" y="104.1" fill="#FFC0CB" width="6.9" height="1015.8"/>
<rect x="511.4" y="104.1" fill="#FFC0CB" width="6.9" height="1015.8"/>
<rect x="525.5" y="104.1" fill="#FFC0CB" width="6.9" height="1015.8"/>
<rect x="539.5" y="104.1" fill="#FFC0CB" width="6.9" height="1015.8"/>
<rect x="567.5" y="104.1" fill="#FFC0CB" width="6.9" height="1015.8"/>
<rect x="581.5" y="104.1" fill="#FFC0CB" width="6.9" height="1015.8"/>
<rect x="553.5" y="104.1" fill="#FFC0CB" width="6.9" height="1015.8"/>
<rect x="201.4" y="104.1" fill="#FFC0CB" width="6.9" height="1015.8"/>
<rect x="229.4" y="104.1" fill="#FFC0CB" width="6.9" height="1015.8"/>
<rect x="243.5" y="104.1" fill="#FFC0CB" width="6.9" height="1015.8"/>
<rect x="215.4" y="104.1" fill="#FFC0CB" width="6.9" height="1015.8"/>
<rect x="257.5" y="104.1" fill="#FFC0CB" width="6.9" height="1015.8"/>
<rect x="271.5" y="104.1" fill="#FFC0CB" width="6.9" height="1015.8"/>
<rect x="285.5" y="104.1" fill="#FFC0CB" width="6.9" height="1015.8"/>
<rect x="299.5" y="104.1" fill="#FFC0CB" width="6.9" height="1015.8"/>
<rect x="313.5" y="104.1" fill="#FFC0CB" width="6.9" height="1015.8"/>
<rect x="327.6" y="104.1" fill="#FFC0CB" width="6.9" height="1015.8"/>
<rect x="341.6" y="104.1" fill="#FFC0CB" width="6.9" height="1015.8"/>
<rect x="369.6" y="104.1" fill="#FFC0CB" width="6.9" height="1015.8"/>
<rect x="383.6" y="104.1" fill="#FFC0CB" width="6.9" height="1015.8"/>
<rect x="355.6" y="104.1" fill="#FFC0CB" width="6.9" height="1015.8"/>
</svg>
