<?xml version="1.0" encoding="utf-8"?>
<!-- Generator: Adobe Illustrator 17.1.0, SVG Export Plug-In . SVG Version: 6.00 Build 0)  -->
<!DOCTYPE svg PUBLIC "-//W3C//DTD SVG 1.1//EN" "http://www.w3.org/Graphics/SVG/1.1/DTD/svg11.dtd">
<svg version="1.1" id="Layer_1" xmlns="http://www.w3.org/2000/svg" xmlns:xlink="http://www.w3.org/1999/xlink" x="0px" y="0px"
	 viewBox="0 216 792 792" enable-background="new 0 216 792 792" xml:space="preserve">
<circle fill="#5F452B" cx="396" cy="612" r="396"/>
<circle fill="none" stroke="#FFC0CB" stroke-width="14" stroke-linecap="round" stroke-miterlimit="10" stroke-dasharray="1,25" cx="396" cy="612" r="339.4"/>
<g>
	<path fill="#FFC0CB" d="M315.3,475.5l224.7,224.7c0,0,7.1,6.1,0,13.2c0,0-17.5,20,29.8,60.9c0,0,23,18.2,32.8,22.7
		c0,0,42.7,23.2,16.9,45.9L283.7,507.2L315.3,475.5z"/>
	<path fill="#FFC0CB" d="M253.1,537.8l224.7,224.7c0,0,6.1,7.1,13.2,0c0,0,20-17.5,60.9,29.8c0,0,18.2,23,22.7,32.8
		c0,0,23.2,42.7,45.9,16.9L284.7,506.1L253.1,537.8z"/>
	<path fill="#FFC0CB" d="M534.6,693.8L309.9,469c0,0-6.1-7.1-13.2,0c0,0-20,17.5-60.9-29.8c0,0-18.2-23-22.7-32.8
		c0,0-23.2-42.7-45.9-16.9L503,725.4L534.6,693.8z"/>
	<path fill="#FFC0CB" d="M472.4,756L247.6,531.3c0,0-7.1-6.1,0-13.2c0,0,17.5-20-29.8-60.9c0,0-23-18.2-32.8-22.7
		c0,0-42.7-23.2-16.9-45.9L504,724.4L472.4,756z"/>
</g>
<path fill="#FFC0CB" d="M188.4,832.2L178.2,822c-6.7-6.7-8.2-16.2-3.3-21.1l120.3-120.3c4.9-4.9,14.4-3.4,21.1,3.3l10.2,10.2
	c6.7,6.7,8.2,16.2,3.3,21.1L209.5,835.5C204.5,840.4,195.1,838.9,188.4,832.2z"/>
<path fill="none" stroke="#FFC0CB" stroke-width="4" stroke-miterlimit="10" d="M314.4,716.4c12.7-16,205.1-138.6,205.1-138.6
	C677.2,467.3,608.3,427,608.3,427C528.2,347,410,537.2,410,537.2c-24.9,47.2-116,158.7-116,158.7"/>
<path fill="none" stroke="#FFC0CB" stroke-width="4" stroke-miterlimit="10" d="M308.3,712.2c0,0,384.8-255.8,285.7-339.1
	c0,0-49-37.9-141.7,121.8c0,0-131.1,198.6-154.2,207.2c0,0,247.1-267,279.6-280.5"/>
<path fill="none" stroke="#FFC0CB" stroke-width="4" stroke-miterlimit="10" d="M289.3,696.2c0,0,187.4-358.5,288.5-274.7
	c0,0,89.3,36.1-21.8,143.4c0,0-84.5,62.3-242,158.3"/>
<path fill="none" stroke="#FFC0CB" stroke-width="5" stroke-miterlimit="10" d="M307.2,703.2c0,0,287-246.9,282.4-275.5"/>
<path fill="none" stroke="#FFC0CB" stroke-width="4" stroke-miterlimit="10" d="M300.6,709.7c0,0,312.7-233.6,284.4-284.4"/>
</svg>
