<?xml version="1.0" encoding="utf-8"?>
<!-- Generator: Adobe Illustrator 17.1.0, SVG Export Plug-In . SVG Version: 6.00 Build 0)  -->
<!DOCTYPE svg PUBLIC "-//W3C//DTD SVG 1.1//EN" "http://www.w3.org/Graphics/SVG/1.1/DTD/svg11.dtd">
<svg version="1.1" id="Layer_1" xmlns="http://www.w3.org/2000/svg" xmlns:xlink="http://www.w3.org/1999/xlink" x="0px" y="0px"
	 viewBox="-0.5 215.5 793 793" enable-background="new -0.5 215.5 793 793" xml:space="preserve">
<rect x="7" y="223" fill="#FFC0CB" width="778" height="778"/>
<path fill="#5F452B" d="M178.2,639l53.1,266.7h330.6l50.2-249c0,0,54.1-15.7,37.4-66.9c0,0-2-41.3-70.8-41.3c0,0,21.7-37.4-3.9-78.7
	c0,0-22.6-44.3-83.6-32.5c0,0,5.9-47.2-43.3-55.1c0,0-37.4-33.7,4.9-61.6c0,0-57.1-19-96.4,52.8c0,0-46.2-1-52.2,47.2
	c0,0-64.9-8.9-83.6,29.5c0,0-27.6,31.5-3,80.7c0,0-76.8-8.9-77.7,49.2C139.8,580,131.9,627.2,178.2,639z"/>
<path fill="none" stroke="#FFC0CB" stroke-width="10" stroke-miterlimit="10" d="M133.4,631.2c0,0,259.8,99.8,519.4,17.7"/>
<rect x="7" y="223" fill="none" stroke="#5F452B" stroke-width="15" stroke-miterlimit="10" width="778" height="778"/>
</svg>
