<?xml version="1.0" encoding="utf-8"?>
<!-- Generator: Adobe Illustrator 17.1.0, SVG Export Plug-In . SVG Version: 6.00 Build 0)  -->
<!DOCTYPE svg PUBLIC "-//W3C//DTD SVG 1.1//EN" "http://www.w3.org/Graphics/SVG/1.1/DTD/svg11.dtd">
<svg version="1.1" id="Layer_1" xmlns="http://www.w3.org/2000/svg" xmlns:xlink="http://www.w3.org/1999/xlink" x="0px" y="0px"
	 viewBox="252.1 329.2 282 565.5" enable-background="new 252.1 329.2 282 565.5" xml:space="preserve">
<g>
	<defs>
		<rect id="SVGID_1_" x="252.1" y="329.2" width="282" height="565.5"/>
	</defs>
	<clipPath id="SVGID_2_">
		<use xlink:href="#SVGID_1_"  overflow="visible"/>
	</clipPath>
	<path clip-path="url(#SVGID_2_)" fill="#FFFFFF" d="M532.5,885.6c0,4.2-6.1,7.7-13.5,7.7H267.1c-7.5,0-13.5-3.4-13.5-7.7V338.4
		c0-4.2,6.1-7.7,13.5-7.7H519c7.5,0,13.5,3.4,13.5,7.7V885.6z"/>
	<path clip-path="url(#SVGID_2_)" fill="none" stroke="#5F452B" stroke-width="3" stroke-miterlimit="10" d="M532.5,885.6
		c0,4.2-6.1,7.7-13.5,7.7H267.1c-7.5,0-13.5-3.4-13.5-7.7V338.4c0-4.2,6.1-7.7,13.5-7.7H519c7.5,0,13.5,3.4,13.5,7.7V885.6z"/>
</g>
</svg>
